/* XPM */
static char *_576255869010[] = {
/* columns rows colors chars-per-pixel */
"64 64 232 2 ",
"   c #3F5C15",
".  c #34510C",
"X  c #495F1A",
"o  c #4A6C13",
"O  c #4A6319",
"+  c #53681B",
"@  c #58781A",
"#  c #4E710D",
"$  c #617C1A",
"%  c #4C4A3D",
"&  c #4C6A24",
"*  c #556A27",
"=  c #5D7B25",
"-  c #5A7729",
";  c #586D31",
":  c #567134",
">  c #637928",
",  c #667A36",
"<  c #696E3D",
"1  c #615C49",
"2  c #5F6446",
"3  c #726B46",
"4  c #767C46",
"5  c #787856",
"6  c #676748",
"7  c #7B6D6A",
"8  c #7D7265",
"9  c #81794D",
"0  c #87795C",
"q  c #846F61",
"w  c #847265",
"e  c #8B7465",
"r  c #82756D",
"t  c #867C6B",
"y  c #8B7A6E",
"u  c #897969",
"i  c #917C6E",
"p  c #947867",
"a  c #8B7C73",
"s  c #887B77",
"d  c #917E73",
"f  c #5E8115",
"g  c #6B8C1D",
"h  c #729016",
"j  c #5D812B",
"k  c #6A852D",
"l  c #6C8B2C",
"z  c #688524",
"x  c #738D27",
"c  c #769528",
"v  c #6B8334",
"b  c #6A8739",
"n  c #768C3A",
"m  c #768837",
"M  c #7D9C33",
"N  c #75943B",
"B  c #7C953A",
"V  c #7C9A3B",
"C  c #779534",
"Z  c #6B9321",
"A  c #778B42",
"S  c #798946",
"D  c #7C9645",
"F  c #7D8258",
"G  c #738E4D",
"H  c #7E8462",
"J  c #849C3C",
"K  c #869B37",
"L  c #8B9C33",
"P  c #88A638",
"I  c #96B238",
"U  c #8FAC32",
"Y  c #A2A935",
"T  c #848D49",
"R  c #84944B",
"E  c #879C46",
"W  c #949C4B",
"Q  c #868A56",
"!  c #899857",
"~  c #939959",
"^  c #8CA444",
"/  c #89A54A",
"(  c #95AC44",
")  c #96B145",
"_  c #8FA357",
"`  c #93A254",
"'  c #9AAB5D",
"]  c #97A858",
"[  c #9BB658",
"{  c #8CB042",
"}  c #A2AC4C",
"|  c #A1AD56",
" . c #ADB65B",
".. c #AEBB47",
"X. c #8B8866",
"o. c #96836C",
"O. c #8B9365",
"+. c #989B6A",
"@. c #8D8177",
"#. c #8E827C",
"$. c #8B8E71",
"%. c #948375",
"&. c #998576",
"*. c #94847B",
"=. c #9A867A",
"-. c #958A7C",
";. c #9C8A7D",
":. c #998876",
">. c #999574",
",. c #A28C7D",
"<. c #A58876",
"1. c #A4927E",
"2. c #A39C7B",
"3. c #A99679",
"4. c #B2947A",
"5. c #99A464",
"6. c #9CA56B",
"7. c #99A866",
"8. c #A5A966",
"9. c #A6B564",
"0. c #B2B769",
"q. c #ACA574",
"w. c #A4A57B",
"e. c #A7A976",
"r. c #ADB578",
"t. c #B2B278",
"y. c #B4AB74",
"u. c #ABC34C",
"i. c #8F8481",
"p. c #928682",
"a. c #958984",
"s. c #9C8C83",
"d. c #968B89",
"f. c #9A8E8B",
"g. c #998782",
"h. c #9D9184",
"j. c #9E918C",
"k. c #9E9391",
"l. c #9A8E90",
"z. c #A18E84",
"x. c #A18F8A",
"c. c #A49285",
"v. c #AA9585",
"b. c #A39A84",
"n. c #AC9A85",
"m. c #A4948C",
"M. c #A9968C",
"N. c #A4998D",
"B. c #AC9A8D",
"V. c #B19D8C",
"C. c #B39887",
"Z. c #A39692",
"A. c #A89791",
"S. c #A59994",
"D. c #AB9C94",
"F. c #A69C99",
"G. c #AC9E99",
"H. c #B19E93",
"J. c #B19F98",
"K. c #9FA080",
"L. c #AEA58B",
"P. c #A9A484",
"I. c #BCAC8B",
"U. c #B7A78A",
"Y. c #BAB887",
"T. c #ADA196",
"R. c #AEA19B",
"E. c #ADAA96",
"W. c #B3A295",
"Q. c #B9A695",
"!. c #B4AB95",
"~. c #BAAC95",
"^. c #B3A49C",
"/. c #B9A69D",
"(. c #B5AA9D",
"). c #BBAA9C",
"_. c #BCB899",
"`. c #AFB392",
"'. c #AEA3A1",
"]. c #B3A6A2",
"[. c #B9A7A1",
"{. c #B6AAA4",
"}. c #BBABA4",
"|. c #B6ABAA",
" X c #BBAEAB",
".X c #B1A7A8",
"XX c #BDB1A4",
"oX c #BDB1AC",
"OX c #BAB6A8",
"+X c #BEB3B2",
"@X c #BFB6B5",
"#X c #BAAEB2",
"$X c #C2A99C",
"%X c #C3B597",
"&X c #C7B489",
"*X c #C0AEA5",
"=X c #C1AFAA",
"-X c #C2B2A4",
";X c #C4BCA4",
":X c #C2B3AC",
">X c #C9B7AF",
",X c #C5BBAD",
"<X c #CBBAAD",
"1X c #C2B6B2",
"2X c #C5B9B4",
"3X c #CABBB5",
"4X c #C6BBB9",
"5X c #CABDBA",
"6X c #C7B7B4",
"7X c #D1BFB7",
"8X c #BFC195",
"9X c #C2C398",
"0X c #C9C2AB",
"qX c #CDC1BD",
"wX c #C8C3B9",
"eX c #D1C4BD",
"rX c #D3CBBB",
"tX c #D1C8B6",
"yX c #C6BDC0",
"uX c #CDC3C2",
"iX c #D2C5C3",
"pX c #D5CAC5",
"aX c #D6CCCA",
"sX c #DACECB",
"dX c #D6CBC7",
"fX c #DBD0CD",
"gX c #D9D1C6",
"hX c #DCD2D1",
"jX c #E1D5D4",
"kX c #E3DADA",
"lX c #E0D2C5",
"zX c #E9E1DD",
/* pixels */
"a.s.j.s.=.z.f.|.1X].G.].].'. X Xy =. X X.Xz.m.e A.$X'.#X'..X Xp.w D.].k..X XS.A.G.iXyX|.}.F.1X#Xp.i.#.r l.j.d.d.d.|.oXd p.d.m.s ",
"a.-.p.m.v.M.m.'.}.G.m.J.}.G.}.[.=.z.=X6X}.z.C.p A.J.'.].1X1X].s.-.G.'.Z.'.].G.[.}.hXuX|.].G.6X#Xd p.r 7 l.T.d.a.k.S. Xp.d l.p.s ",
"'.d.*.D.c.^.Z.Z.^.M.Z.].^.Z.].D.z.=.].:X[.z.c.p z.A.[.A.1X#X XZ.s.].Z.x.'.].J.J.4XhX4X].m.'.yX|.d g.r 7 Z.S.*.f.k.k.Z.#.a.d w i.",
"'.s.d H.;.^.|.|.J.A.^.].^.c.Z.D.z.z.^.=X}.z.,.d v.J.*Xx.].|.].Z.g.J.x.*.G.].[.].6X4X|.#XA.A.6X|.s i.r r Z.m.a S.j.Z.j.@.s.s w i.",
"Z.d.s.A.*.G.S. X}.c.oX^.G.N.G.A.;.c.D.}.[.z.M.v.v.x.$Xx.*X[.[.x.=.D.H.g.D.].[.J.>X>X'.}.}.H.J. Xy d p q x.A.w x.F.k.h.@.g.g.q g.",
"R.f.-.s.*. X.X].6XA. X^.c.m.M.S.=.s.H. X/.=.v.4.v.C.*XA.].=XJ.Z.,.[.[.z.[.J.[.G.5XeX}.J./. X[.].y C.4.d z.x.%.d m.s.Z.*.f.A.e p.",
"F.s -.g.g. X|.G.5XA.].}.A.M.G.F.*.z.D.}.}.=.c.3.H.A.=X$XJ.>X}.D.=.=X[.m.[.J.].J.=XyX1XD.^.=X}.{.p J.x.H.A.=.i =.s.f.F.a.m.J.y g.",
"^.s s.s.s.].|.s.@X{.^.}.T.A.G.m.s.c.^.}.}.;.;.<.J.H.*X$XJ.:X*XG.=.>X}.A. XH.].[. XiX4XM.D.=X6X#Xe C.z.v.H.d d z.s.Z.].g.A.J.z.m.",
"F.a j.g.a.R.].h. X}.[.].R.J.m.Z.g.m.R.^./.;.&.<.H./.$XH.[.^.}.J.c.$X}.A.}.D.J.^.:XiX XA.M.=X5X[.d z.z.,.V.-.e x.A.S.'.h.k.^.v.c.",
"k.#.j.f.a.j.{.j.{.^.].}.^.^.A.F.m.S.D.G.}.s.,.C.B.=X=Xz./.v.H.m.V.).[.m.^.S. X}.6XiX X].}.=X5X Xd &.s.=.c.-.u s.G.A.S.h.S.A.,.c.",
"S.*.k.s.#.s.m.j.].T.].1XS.s.m.].S.F.R.c.s.s.v.C.M.>XqXs.c.M.^.v.m.*X[.z.].D.1X X1XiXoX[.>X=X X].&.d =.&.S.s.y s.f.Z.F.j.Z.D.z.,.",
"j.#.j.s.a.j.4Xg.|.{.].].c.-.A.R.G.G.R.%.:.s.c.v.v. X7Xz.=.J.-.s.M.J.[.x.J.A. X>X+X1X]. X6X}.[. X<.d =.;.D.-.y *.Z.F.G.j.x.H.M.&.",
"l.i.j.f.d.R.uX*.oX X X}.m.-.D.F.G.].^.%.c.%.;.C.&.}.iXc./.^.%.A.J./.H.g.A.g.R.>X X Xg.{.oX*X6X Xs.y d g.G.*.*.*.j.S.S.d.=.J.V.d ",
"k.i.j.j.d.R.uX@.|.{.^.oXm.g.j.R.G.G.^.=.a q o.C.<./.eXD./.D.g.m.D.J.D.s.m.g.].>X{. X-.R.^./.5X1X*.y =.=.Z.r @.-.j.Z.S.8 r A.M.i ",
"l.a.k.j.d.'.4X#.@X{.S.{.j.g.*.S.m.c.m.v.z.e &.$X,.z.iXH.W.R.g.D.^.D.A.x.s.s.|.*XG.R.g.^.}.^.3X4Xs.a &.d D.a d p.Z.D.D.7 =.J.v.i ",
"d.i.k.j.d.].1Xp.|.{.M.(.A.N.i h.N.c.R.c.R.=.v.Q.,.&.5XH.^.^.%.M.^.G.D.s.-.x.].[.{.].=.^.}.Q.eX4X=.a =.=.D.*.a p.Z.F.D.s s.c.,.i ",
"d.#.j.j.d.].+Xa.+XR.N.W.D.D.:.s.D.].=.%.^.*.D.Q.;.v.qXM.R.G.s.R.^.D.M.f.%.S.}.*X]. Xz./.*X/.uX7Xx.d s.&.R.*.*.a.Z.F.R.r *.c.h.=.",
"a.i.k.j.d..X@X*.+X}.m.^.S.m.T.R.h.R.-.s.R.-.^.).:.T.qXH.(.D.N.^.^.G.D.m.%.].6X}.D. XA.=X X^.aXiXM.p.s.=.].j.a.f.j.G.D.a s.m.s.;.",
"#.i.j.Z.a.{.2Xa.+X+XD.(.R.S.^. Xm.m.^.R.G.=./.W.,.Q.qXH.}.G.D.^.].W.G.m.*.].3X2XZ.^.S. X=X*XyX>Xc.p.x.s.^.R.f.f.Z.G.R.#.j.c.=.=.",
"i.p.@.j.p.{.4Xa.+XoX^.}. X^.R.oXD.].].R.R.z. X).;./.iXG.].A.D.T.^.^.R.j.%.^.2X3XS.D.c.>X}.).iX3Xv.p.A.A. X].s.j.j.R.R.#.f.g.c.;.",
"d.l.a.k.d..X4Xh.@X+XT.{.2X{.R.@X].}.@XR.D.f.:X-Xc.).eXH.{.m.D.G.].].^.m.;.^. X}.J.D.M.1X X>XuX5Xm.d.c.x. X].m.f.k.G.R.@.s.s.m.s.",
"#.l.j.k.d..XwXh.2X}.D.^.@X^.^.#X'.oX2X].R.m.}.}.v.).;X). Xm.D.^.].].{.m.s.].6X*XD.M.z.4X:X6XiX5Xz.s.z.x. X].m.Z.k.R.^.#.d.s.m.c.",
"d.d.k.k.d.'.4Xj.2X@XA.(.+X!.R..XR.2XqX.X^.Z.:X:XM.B.~.~. Xs.A.R./.].{.m.z.].:X:X^.B.=.3X>X>XiX5Xz.Z.c.s.].(.f.Z.k.S.R.@.s.s.M.m.",
"i.d.F.k.d.S.oXS.2X:Xm.^.1X{.R.oXR.1X2X|.^.c.:X:XM.L.).W.}.&.M.T. X^. XS.m.].:X/.^.B.,.6X6X5X4X1Xc.f.Z.s.].!.c.F.Z.S.^.#.d.s.M.s.",
"i.d.F.k.d.!.#XF.|.oXm.^.oX X^.@X].2X@X{.^.m.:X:XM.!.<Xo.c.v.W.D. X^. XZ.s.].5X}.{.}.c.2X*XpX4X[.D.j.j.s.F.E.F.S.Z.R.R.p.p.s.A.m.",
"p.d.T.F.d.U.E.S.oXR.N.{.{..X{.@XR.4X4X XF.m.XX>XB.).,X,.D.!.W.G. X^.}.m.c.].=X).}.oX3.>X*XpX5XJ.H.S.s.f.R.(.R.Z.Z.F.^.#.d.s.c.m.",
"i.d.F.k.d.E.L.S.oXZ.M.oX^.|.].+XR.@XuX+XD.M.}.:XW.^.-XD.}.Q.W.G.1X^. Xm.S.].6X).^.oXB.2X*X7X4X^.W.Z.m.s.].{.R.F.m.'.].#.a.c.s.h.",
"i.d.'.k.i.T.R.R.{.s.N.{.].{.R.+X{.oXuX@XG.A.}.}.B.Q.:XW.^.Q.~.G.#X^. XA.M.^.3X}.W.1X^.2X/.:X4X[.D.Z.m.m.{.{.{.S.Z.R.^.#.p.s.s.z.",
"i.d.F.k.i.F.{.R.R.s.A. X{.oX{.#X].4XuX@XD.D.}.W.W.}.-XQ.R.~.Q.F.1X}. XZ.m.].:X}.].2XQ.:X}.:X4X^.H.F.z.j.{.].].F.Z.R.].*.p.a g.z.",
"i.d.k.l.d.E..XR.|.Z.N.{. X X'.+X].2XuX@XG.m./.W.W.XXXXD.S.W.Q.F.oX X Xc.m.].}.).G.oX^.1XQ.:XqXD.v.F.m.m.].!.R.S.S.].R.#.*.a z.f.",
"d.d.k.l.d.R..XR.|.g.B.XX}.oX].2X{.@XuXoX^.A.}.H.n.}.}.n.M.W.Q.^. X}.1XZ.m.^.^.}.D.}.^.}.H.:X6Xm.m.A.s.m.].).F.F.S.].R.p.d.a =.m.",
"#.d.T.l.l.E.|.E. Xg.D.oX{.oX'.@XoX2XuX@X^.M.}.B.v.).~.W.A.W.Q.R.:X^.oXR.A.R.H.}.M./.H.^.H.:XoXA.c.m.g.m.G.^.N.Z.S.'.D.a.s.y =.g.",
"#.l.F.k.j.{.oXR.].f.D.@XoX X].@X|.@XqX+X^.A.>XV.n.).Q.B.D.V.H.H.[.,.}.].D.N.M.}.m.^.G.(.M.^.1XJ.z.Z.s.m.R.N.m.Z.F.R.D.*.a.a ;.s.",
"i.k.G.k.d..X.XR.R.=.W.oX1XoX].+X X1X4XoX/.^.:Xv.v._.Q.W.W.M.Q.D.}.M.D.J.A.R.D.}.m.W.M.R.m.W.1X^.z.s.s.m.R.N.j.F.E.'.S.#.d.%.h.s.",
"i.k.F.j.l.|.{.R.'.p.H.oX X}..X|. X1X4X1X^.^.}.z.v.XXQ.W.G.B.v.G.>XH.v.M.R.{.T.^.m.^.A.G.D.M.1X}.c.h.s.D.R.m.Z.S.G.].A.p.d.*.c.f.",
"i.k.F.k.d.{.{.R.G.*.R.oX X^.].|.].1X:X XH.D.6Xv.n.~.W./.H.n.M.^. X}.M.=.R.D.D.^.c./.W.G.H.M. X Xv.m.c.A.R.h.m.S.G.G.D.a.a.s.c.-.",
"#.d.S.S.d.|.{.R.D.a ^. X].^.].|.{.oX+X X^.M.:Xv.H.Q.L.W.D.V.D.^.oX^.{.i h.^.^.^.z.Q.c.F.A.c.oX6Xm.f.s.S.D.k.m.Z.S.S.Z.s.a.*.s.s.",
"a.k.'.F.l.+X|.].'.*.R.}.}.T.{. X].oX1X{./.G.).v.W.c.n.D.m.W.B.^.:X/.].z.S.^./.D.z.n.;.!.m.,.oX3XD.c.c.Z.S.T.D.j.N.D.m.k.d.d s.f.",
"k.Z.S.S.S.4X+X XR.d m.oX2XD. X}.|.:X4X}././.^.v.H.h.W.^.c.B.A.^.}.}.{.c.R.R.^.m.-.v.c.{.c.=.|.3XH.c.c.m.T.{.{.N.S.R.M.R.p.a ,.j.",
"f.k.Z.l.k.yX5XuX].y s.oX2X^.6X).^.}.5X X}./.).W.B.c.W.^.m.^.]. X2X}.{.m.].^.{.v.%.Q.A.oXG.;.:X6X:XZ.m.m.D.{. XT.m.m.A.{.d.a c.x.",
"s.k.R.Z.k.4XiX4XG.*.v.}.oX{.3X). X X6X2X>X^./.V.v.T.^.^.B.}.oX{.6X:X}.m.^. X:XM.=.qX X5X(.z.6X1X5XZ.m.m.^.|.@XD.N.D.].].d.s.M.Z.",
"a.d.k.k.j.|.uX@XZ.*.G.:X XH.2X}.}. X^.:X2XW.-XH.%.B.:X^.c.*X1X].>X:X}.m.Z.4XqXJ.=.hX1XuX}.y 4X2X>X^.G.A.oX@X4XS.Z.D.}.].F.J.H.^.",
"S.k.k.-.d.uXyXiX+X#.A.2X1X].*XT.H.[. X X>X>X*Xv.o.z.:X}.z.XX@X^.:X}.}.M.S.1XiXH.s.zX4XaX:X%.uXuX3XoXD.h.'.2XoXS.m.G.^..X+X}.:X|.",
"S.k.F.d.l.uX@X4X|.D.T.}.6XoX6XD.c.V.:XoX6X/.Q.v.%.g.oX(.M.:XoX].*X^.[.B.{.1XuX^.Z.hX4XuX2XM.5XuXsX(.s.=.R.@XoXS.Z.m.R.'.].#X+X+X",
"k.j.k.d.f.wX@X@X'.#.].oX=X{.2X^.D.R.oX6X}.B.~.C.:.s.:X/.H.2XoX^.*X^./.v.{.4XuX-XJ.kXwXaX1XT.2XaXiXd s.B.oX{.2XZ.m.m.].'.J.]. X+X",
"d.j.F.p.d.,XOX@X{.y s.1X6X(.4X{.^.{.:X}./.H.Q.M.h.b.wX}.B.2XoXH.}./.].v.F.2XeX*XA.kXwXiX:XW.qXqX^.=.=./.].T.4XZ.j.c.oX|. X].oX4X",
"p.f.T.p.a.qXoX{.oX#.s.XX2X!.6X{.{. X1XoX/.G.W.1.v.h.2X}.B.3XXXR.}./.^.M.G.@XqX}.c.jXqXuX:XD.3XsX3X%.&.z.:XB.}.G.j.c.1X#X#X].+X+X",
"i.a.R.a.d.qX1XT.^.a s.^.1X].1X{.}.oX<XOX(.M.L.,.M.c.OX}.V.5XXXD./.H.^.v.M.^.:X}.m.hX@XuXoXH.iXhX6Xy =.z.oXT.T.S.h.D.+X X X].+X1X",
"8 d.T.a.h.4XOXL.^.a c.oX4X_.1X|.{.oX:X:X/.T.V.,.M.j.,X!.H.6X^.D.}.B.^.M.A.T.>X/.D.hXOXqX^.D.qXfX2X=.*.c.].{.{.>.*.S.oXoX.X X1X+X",
"s d.k.-.$.oXOXw.].a D.:XqX(.@X XoX|.XXoXW.^.I.1.v.h.XX^.V.=X!.B. XQ.^.M.M.T.eX:XT.aXoXuX^.W.uXaX,X;.%.M..XOX+X;.y m..XoX|.+X4X|.",
"8 a.h.H 7 (.).2.G.%.W.:XqX{.6X X5X X).-X}.^.&X:.G.>.{.B.B.5X!.2./.J.^.D.m.^.pXaX XpX{.2X}./.iXsX>X=.z.D.{.+X4Xz.s.R.oX|.|.oX4X|.",
"t X.H 8 G E.{.3.G.:.M.2XuX@X1X6X4X X/.~.}.G.I.,.D.h.{.Q.L.2XT.+././.{.M.m.(.eXqX}.fXXX2X:X/.qXsXoX;.B.c.].}.5Xc.h.D.}.oXoX1XyX+X",
"s 5 5 ! 4 $.E.3.R.;.H.5XuXOX2X2X4X1XI.W.[.H.U.3.H.h.W.W.D.XXD.+.L.J.*XM.b.^.wX*XW.jXOX1X1X}.eXdX>XM.D.M.{.|.uXG.h.T.oXoX+X4XuXoX",
"t 5 5 n % #.+.:.^.c.V.qXiXXX5X2X5X3XU.&XoXJ.y.v.^.v.W.L.c.~.G.w.+.H.*X1.X.!.tX:X:XkXOX5X3X-XeXdX^.v.H.H.{.oXqX^.h.R.}.oX1X4XuX1X",
"t 5 b ; 1 +XR.Q (.v.C.iXpX3X<X6X5XeX%X%X-XW.y.C./.B.).U., 5 P.n.+.Q.}.>.t b.rX5XqXzXXX2XiX<XeXfXP.D.*X/.oXOXiXD.>.N.:X}.2XuXiXK.",
"5 2 , ; 8 P.P.X.^.B.U.iXfX3X*XtXdXsX>X%X$X/.&XV.U.P.*X~ 0 5 Q T.7.Q.~.+.;.+.dX;X0XzX,X6X%XtXpXsXw.!.).}.:X+X,X] F >.XX1X@XpXe.>.",
"F ; , ; 6 / O.A 6.3.4.<XfX0XsX7XhX6XH.0.;X:X&X$X8.~ $X] X.P._ e.t.6.P.q.o.O.9X7.8XfXP.w.8X8XgXlXe._.6XXXOX{.`./ ~ >.U.>X3X~.e.6X",
"A l - & & j ^ , ; R q.eXtXXXfX_.0X~.Y.0.&X;XY.e.8.J 5.9.W D E W 9.C G ( B E | Y.Y.tX`.P.wX;Xr.fXe.!.3XXX2Xw.7.G _.).2.3X3X7.,X6X",
"z N j O : - N 6 1 , 8.rXXX;XrXr.! ! r.q.E %X) j ^ E t.) k ! E ~ T M ^ J 2.I } t.W 6.e.eX,X}.8X0Xe.e.8X:X^.+.N D 9.>.2.>XY.7.iX%X",
"o 7.G @ j O N A 1.4 W <Xt.`.tX' e.n ' n 7.t.) v E 8.9.P @ ) I ; > P l K m P | > * > m 9XgXP._.t.t.^ Y.P.{.F C Z D > 5.>X` t.<X0.",
"- D N o o z = l D b M ' q.~.8X_ 6.! D N ! R | m P ] P ( x ( O + @ c l C # z [ T W , * T &X8.o.0 R 9.eX+.{.O.c c Q.< W &X} c.n.I ",
"- l Z j : z & N k : D / 5.I.;X_ 7.Q S / b D ( > N ^ M K I C > m x @ K L X X [ 5.C , m ~ J K Q 3 j K 0X_ S / P _ *XK J y...w.1.` ",
"= l = j ; * Y U - X k 9._ / 7.V E R Q _ , B K G @ P g @ X m K R m x I x o & b A ` D M C J > T T z f ! U = h U I.H.9 L > u.8.n.%X",
". k = b - T  .L , + , ' , l ! A v ' m b v x u.D * c @ g . @ ( P > L Y z >   @ z C { E o z , < 5 O . c I P g h 0.C.9 h $ } q.Y. ."
};
